<svg width="74" height="62" viewBox="0 0 74 62" fill="none" xmlns="http://www.w3.org/2000/svg">
<path d="M49.9374 10.9368C48.9672 8.67457 50.0049 6.05007 52.2552 5.07477L63.1207 0.365601C65.371 -0.6097 67.9817 0.433526 68.9519 2.69571L73.6363 13.6185C74.6065 15.8807 73.5687 18.5052 71.3184 19.4805L60.453 24.1897C58.2027 25.165 55.592 24.1217 54.6218 21.8595L49.9374 10.9368Z" fill="#FF5B14"/>
<path d="M0.363681 32.4224C-0.606498 30.1602 0.431249 27.5357 2.68156 26.5604L13.547 21.8512C15.7973 20.8759 18.408 21.9191 19.3782 24.1813L24.0626 35.1041C25.0328 37.3663 23.9951 39.9908 21.7448 40.9661L10.8793 45.6753C8.62902 46.6506 6.0183 45.6073 5.04812 43.3452L0.363681 32.4224Z" fill="#FF5B14"/>
<path d="M25.6323 42.5195C23.382 43.4948 22.3443 46.1193 23.3145 48.3815L27.9989 59.3043C28.9691 61.5665 31.5798 62.6097 33.8301 61.6344L44.6955 56.9252C46.9459 55.9499 47.9836 53.3254 47.0134 51.0632L42.329 40.1405C41.3588 37.8783 38.7481 36.835 36.4978 37.8103L25.6323 42.5195Z" fill="#FF5B14"/>
<path d="M45.7243 38.6688C44.7541 36.4066 45.7919 33.7821 48.0422 32.8068L58.9076 28.0977C61.1579 27.1224 63.7687 28.1656 64.7388 30.4278L69.4233 41.3506C70.3935 43.6128 69.3557 46.2373 67.1054 47.2126L56.24 51.9217C53.9897 52.897 51.3789 51.8538 50.4088 49.5916L45.7243 38.6688Z" fill="#FF5B14"/>
<path fill-rule="evenodd" clip-rule="evenodd" d="M20.7242 17.931C19.754 15.6688 20.7917 13.0443 23.042 12.069L38.6611 5.29957C40.9114 4.32427 43.5221 5.36749 44.4923 7.62968L51.2262 23.3312C52.1964 25.5934 51.1586 28.2179 48.9083 29.1932L33.2893 35.9626C31.039 36.9379 28.4282 35.8947 27.4581 33.6325L20.7242 17.931ZM27.1216 21.9619L26.9772 22.3702C26.662 23.2609 27.0622 24.2475 27.907 24.6627L33.8071 27.5626C34.7154 28.0091 35.812 27.6392 36.2686 26.7325L44.1527 11.0781C44.5927 10.2044 44.2829 9.13741 43.4444 8.6389L43.336 8.57447C42.4144 8.0265 41.2238 8.37778 40.743 9.33958L34.0651 22.6967C33.9737 22.8796 33.7524 22.9537 33.5701 22.8625L29.687 20.9207C28.6943 20.4243 27.4932 20.9118 27.1216 21.9619Z" fill="#FF5B14"/>
</svg>
